<?xml version="1.0" encoding="UTF-8" standalone="no"?>
<svg
   viewBox="52 42 100 100"
   version="1.1"
   id="svg5"
   sodipodi:docname="Gmail.svg"
   width="100"
   height="100"
   inkscape:version="1.4.2 (f4327f4, 2025-05-13)"
   xml:space="preserve"
   xmlns:inkscape="http://www.inkscape.org/namespaces/inkscape"
   xmlns:sodipodi="http://sodipodi.sourceforge.net/DTD/sodipodi-0.dtd"
   xmlns="http://www.w3.org/2000/svg"
   xmlns:svg="http://www.w3.org/2000/svg"><defs
     id="defs5"><clipPath
       id="clip0_730_27136"><rect
         width="98"
         height="96"
         fill="#ffffff"
         id="rect1"
         x="0"
         y="0" /></clipPath></defs><sodipodi:namedview
     id="namedview5"
     pagecolor="#505050"
     bordercolor="#eeeeee"
     borderopacity="1"
     inkscape:showpageshadow="0"
     inkscape:pageopacity="0"
     inkscape:pagecheckerboard="0"
     inkscape:deskcolor="#505050"
     inkscape:zoom="1.3787879"
     inkscape:cx="-179.86813"
     inkscape:cy="220.48352"
     inkscape:window-width="2880"
     inkscape:window-height="1760"
     inkscape:window-x="-12"
     inkscape:window-y="1878"
     inkscape:window-maximized="1"
     inkscape:current-layer="svg5" /><path
     id="path11"
     style="opacity:1;fill:#ffffff;fill-opacity:1;stroke:none;stroke-width:10;stroke-linecap:round;stroke-linejoin:round;stroke-dasharray:none;paint-order:stroke markers fill"
     d="m 93.780034,-16.033993 -35.96289,32.344105 a 5,5.478422 0 0 0 -1.29297,1.76764 c 1.05433,3.4445 3.57289,6.20265 6.7168,7.35735 a 5,5.478422 0 0 0 0.91992,-0.65699 L 101.48511,-8.7879251 Z m 26.339836,1.729133 -8.03711,6.9464639 35.73438,32.1365081 a 5,5.478422 0 0 0 0.91992,0.65699 c 3.14387,-1.15496 5.66226,-3.91311 6.7168,-7.35735 a 5,5.478422 0 0 0 -1.29297,-1.76764 z" /><path
     id="path1"
     style="fill:#ffffff;stroke:none;stroke-width:1"
     d="m 61.576982,54.513905 c -5.03339,0.342864 -9.57698,4.425958 -9.57698,10.222833 v 9.090909 48.863633 c 0,3.77273 3.05682,6.81818 6.81819,6.81818 h 15.90909 V 90.873101 L 102,111.32765 129.27273,90.873101 v 38.636359 h 15.90909 c 3.77272,0 6.81818,-3.05681 6.81818,-6.81818 V 73.827647 64.736738 c 0,-8.431817 -9.62544,-13.237748 -16.36408,-8.180931 l -6.36319,4.77184 L 102,81.782192 74.727282,61.327647 l -6.36319,-4.77184 c -2.10938,-1.580255 -4.49922,-2.19775 -6.78711,-2.041902 z" /><path
     style="baseline-shift:baseline;display:inline;overflow:visible;opacity:1;vector-effect:none;fill:#ffffff;stroke-width:1;stroke-linecap:square;paint-order:stroke markers fill;enable-background:accumulate;stop-color:#000000;stop-opacity:1"
     d="m 66.518314,-48.724757 c -5.74726,0 -10.5293,5.24174 -10.5293,11.53893 v 51.670499 c 0,6.29719 4.78204,11.53679 10.5293,11.53679 h 78.939446 c 5.74726,0 10.53125,-5.23961 10.53125,-11.53679 v -51.670499 c 0,-6.29719 -4.78399,-11.53893 -10.53125,-11.53893 z m 0,10.95685 h 78.939446 c 0.38023,0 0.53125,0.16547 0.53125,0.58208 v 51.670499 c 0,0.4166 -0.15102,0.57995 -0.53125,0.57995 H 66.518314 c -0.38023,0 -0.5293,-0.16335 -0.5293,-0.57995 v -51.670499 c 0,-0.4166 0.14908,-0.58208 0.5293,-0.58208 z"
     id="rect6" /><path
     id="path7"
     style="baseline-shift:baseline;display:inline;overflow:visible;opacity:1;vector-effect:none;fill:#ffffff;stroke-width:1;stroke-linecap:round;stroke-linejoin:round;paint-order:stroke markers fill;enable-background:accumulate;stop-color:#000000;stop-opacity:1"
     d="m 63.239014,-48.138397 c -3.1429,1.15561 -5.66078,3.91533 -6.71484,7.35949 a 5,5.478422 0 0 0 1.29297,1.76765 L 102.81714,1.4605819 a 5.0005,5.4789698 0 0 0 6.34375,0 l 45,-40.4718389 a 5,5.478422 0 0 0 1.29297,-1.76765 c -1.05429,-3.44396 -3.57191,-6.20152 -6.71485,-7.35735 a 5,5.478422 0 0 0 -0.92187,0.65698 L 105.98901,-9.8621991 64.160894,-47.479277 a 5,5.478422 0 0 0 -0.92188,-0.65912 z" /><rect
     style="opacity:1;fill:none;fill-opacity:1;stroke:#ff00ff;stroke-width:10;stroke-linecap:square;stroke-dasharray:none;paint-order:stroke markers fill"
     id="rect8"
     width="89.999977"
     height="58.218437"
     x="-109.99449"
     y="52.555622"
     ry="5.5302205"
     rx="5.5302196" /><path
     style="opacity:1;fill:none;fill-opacity:1;stroke:#ff00ff;stroke-width:10;stroke-linecap:round;stroke-linejoin:round;stroke-dasharray:none;paint-order:stroke markers fill"
     d="m -109.99448,52.555609 44.999992,36.93691 44.99999,-36.93691"
     id="path9"
     sodipodi:nodetypes="ccc" /><path
     style="opacity:1;fill:none;fill-opacity:1;stroke:#ff00ff;stroke-width:10;stroke-linecap:round;stroke-linejoin:round;stroke-dasharray:none;paint-order:stroke markers fill"
     d="m -109.99449,110.77405 45.000002,-36.936911 44.99999,36.936911"
     id="path10"
     sodipodi:nodetypes="ccc" /><g
     style="fill:#e3e3e3;stroke-width:0.2"
     id="g13"
     transform="matrix(0.125,0,0,0.125,39.098902,258.97803)"><path
       d="m 160,-160 q -33,0 -56.5,-23.5 Q 80,-207 80,-240 v -480 q 0,-33 23.5,-56.5 Q 127,-800 160,-800 h 640 q 33,0 56.5,23.5 23.5,23.5 23.5,56.5 v 480 q 0,33 -23.5,56.5 Q 833,-160 800,-160 Z m 640,-480 -299,187 q -5,3 -10.5,4.5 -5.5,1.5 -10.5,1.5 -5,0 -10.5,-1.5 Q 464,-450 459,-453 L 160,-640 v 400 H 800 Z M 480,-520 800,-720 H 160 Z M 160,-640 v 10 -59 1 -32 32 -0.5 58.5 -10 400 z"
       id="path1-8"
       style="stroke-width:0.2" /></g></svg>
