<?xml version="1.0" encoding="UTF-8" standalone="no"?>
<svg
   viewBox="409.289 277.787 100 99.999998"
   width="100"
   height="100"
   version="1.1"
   id="svg10"
   xmlns="http://www.w3.org/2000/svg"
   xmlns:svg="http://www.w3.org/2000/svg">
  <defs
     id="defs10" />
  <path
     id="path1"
     style="fill:#ffffff;stroke-width:5.71504"
     class="style-scope yt-icon"
     d="m 459.2896,292.78538 c 0,0 -31.27313,6e-5 -39.06865,2.09093 -4.3052,1.15246 -7.68856,4.53578 -8.84102,8.84102 -2.09087,7.79548 -2.09093,24.06967 -2.09093,24.06967 0,0 6e-5,16.27411 2.09093,24.06966 1.15246,4.3052 4.53582,7.68877 8.84102,8.84102 7.79552,2.09099 39.06865,2.09093 39.06865,2.09093 0,0 31.27224,6e-5 39.06745,-2.09093 4.3052,-1.15225 7.68877,-4.53582 8.84102,-8.84102 2.091,-7.79555 2.09093,-24.06966 2.09093,-24.06966 0,0 -0.008,-16.27419 -2.09093,-24.06967 -1.15225,-4.30524 -4.53582,-7.68856 -8.84102,-8.84102 -7.79521,-2.09087 -39.06745,-2.09093 -39.06745,-2.09093 z m -10.00969,20.00502 25.97878,14.99779 -25.97878,14.99899 z" />
</svg>
